<?xml version="1.0" encoding="UTF-8"?> <svg xmlns="http://www.w3.org/2000/svg" width="501" height="263" viewBox="0 0 501 263" fill="none"><path d="M500.339 192.86C490.779 179.68 480.909 163.08 483.559 191.15C442.419 187.98 401.909 175.58 360.389 181.96C354.809 181.96 354.619 181.4 354.519 175.77C353.629 171.98 354.649 159.77 354.349 150.1C357.969 149.92 360.939 149.48 362.429 148.61C360.009 147.27 357.149 146.45 354.119 145.99C353.669 140.83 352.579 137.16 350.179 137.28C349.849 140.02 349.729 142.79 349.729 145.57C347.259 145.46 344.759 145.53 342.349 145.71C342.289 137.04 341.879 128.49 339.489 120.48C337.649 128.18 337.979 137.13 337.759 146.19C330.829 147.1 325.519 148.61 325.519 148.61C325.519 148.61 330.919 149.23 337.639 149.7C337.169 159.9 335.539 170.06 328.859 178.56C322.509 164.51 309.829 169.21 306.669 182.39C289.419 155.16 255.929 148.12 225.799 149.75C225.739 149.39 225.679 149.02 225.609 148.66C325.759 118.99 202.989 100.31 213.509 119.69C227.549 114.64 243.159 115.45 256.889 120.95C276.009 130.59 228.419 143.94 221.499 146.15C219.969 143.34 220.839 139.57 216.639 137.93C217.329 141.25 217.869 143.89 218.489 146.88C213.009 149.23 206.169 149.02 202.309 153.73C205.619 158.51 211.269 155.61 215.939 155C222.109 151.76 220.039 170.79 219.219 184.56C203.449 178.96 184.379 184.54 167.549 181.95C151.289 180.98 135.629 183.11 120.019 187.12C113.279 188.85 106.409 190.89 99.6388 186.61C92.4688 185.51 82.9288 200.8 78.1888 189.15C76.7488 186.35 75.7188 186.46 73.3488 188.56C58.6188 199.26 62.9288 191.59 57.8288 182.65C54.4388 182.81 53.6488 180.16 51.9788 178.46C39.5888 167.68 35.4888 194.29 44.0088 200.56C36.9988 206.53 34.0488 195.08 35.3688 189.73C36.1788 186.37 34.4988 186.22 32.2988 185.87C29.0188 208.48 45.8388 212.1 56.5488 192.85C63.9688 198.99 67.2488 198.89 75.4588 193.23C81.6888 201.36 89.4688 196.61 96.4288 192.42C100.929 190.4 105.999 193.88 110.419 193.44C116.959 192.56 123.409 190.93 129.829 189.38C158.809 180.83 190.859 191.48 219.189 185.02C218.859 190.68 218.769 195.38 219.579 197.15C225.359 194.87 221.679 167.52 223.039 160C220.119 149.02 241.829 154.4 248.599 153.72C277.409 155.23 310.689 173.36 308.049 206.18C307.199 246.07 129.729 245.9 165.459 206.15C165.189 205.92 164.929 205.7 164.659 205.47C117.209 247.79 317.159 251.58 312.379 202.38C331.979 203.17 330.579 177.46 339.609 164.96C340.329 171.13 345.479 209.76 352.949 188.69C354.529 189.97 355.939 191.1 357.349 192.24C359.099 190.9 357.509 188.09 357.689 186.13C400.389 179.39 441.399 191.1 483.789 195.9C484.679 218.16 485.569 240.29 486.449 262.41C492.659 241.87 485.479 217.99 486.919 196.4C490.609 195.56 503.979 199.05 500.329 192.87L500.339 192.86ZM41.5088 190.59C43.6588 187.02 45.4288 175.77 50.9088 181.38C57.9288 188.23 45.0988 203.59 41.5088 190.59ZM312.199 197.96C315.339 196.82 318.159 195.79 320.689 194.87C319.219 198.36 315.459 199.98 312.199 197.96ZM324.399 184.98C308.299 204.9 306.669 184.6 315.889 182.56C315.689 182.23 315.489 181.9 315.279 181.57C314.319 181.14 313.359 180.71 312.079 180.13C316.399 168.3 331.139 176.23 324.389 184.98H324.399ZM347.919 190.47C342.049 177.83 342.329 163.81 342.359 149.97C344.859 150.09 347.409 150.18 349.829 150.18C350.369 163.8 352.789 177.65 347.909 190.47H347.919ZM486.349 180.91C486.879 180.8 487.399 180.7 487.929 180.59C489.949 184.41 495.839 188.13 495.589 192.18C485.089 193.24 486.519 189.11 486.359 180.91H486.349Z" fill="#BCB5B1"></path><path d="M1.50867 98.05C-4.25133 108.79 8.32867 121.19 8.46867 132.3C8.56867 137.18 9.83867 141.93 10.5687 146.74C10.5087 146.33 12.2087 153.7 12.1087 146.43C11.5887 139.88 11.0787 133.33 10.5387 126.51C24.6587 119.69 14.1287 72.83 19.6487 67.18C19.7087 142.82 22.0187 170.81 17.7487 245.23C17.7487 245.23 18.2387 259.09 20.0687 245.23C24.1587 148.46 25.4387 96.51 17.6387 0C10.8987 10.44 25.3387 183.97 1.50867 98.05Z" fill="#BCB5B1"></path><path d="M123.159 171.3C124.169 171.3 125.749 170.48 125.749 169.47C125.749 168.46 124.169 167.64 123.159 167.64C122.149 167.64 121.329 168.46 121.329 169.47C121.329 170.48 122.149 171.3 123.159 171.3Z" fill="#BCB5B1"></path></svg> 